<svg width="81" height="36" viewBox="0 0 81 36" fill="none" xmlns="http://www.w3.org/2000/svg">
<g id="navlogo">
<path d="M0 34.56V0H5.088V14.592C5.888 13.216 6.992 12.144 8.4 11.376C9.84 10.576 11.424 10.176 13.152 10.176C16 10.176 18.24 11.072 19.872 12.864C21.504 14.656 22.32 17.328 22.32 20.88V34.56H17.28V21.408C17.28 16.8 15.44 14.496 11.76 14.496C9.84 14.496 8.24 15.168 6.96 16.512C5.712 17.856 5.088 19.776 5.088 22.272V34.56H0Z" fill="#181717"/>
<path d="M36.3765 35.136C33.3685 35.136 30.8885 34.4 28.9365 32.928C26.9845 31.456 25.8645 29.504 25.5765 27.072H30.7125C30.9685 28.16 31.5765 29.104 32.5365 29.904C33.4965 30.672 34.7605 31.056 36.3285 31.056C37.8645 31.056 38.9845 30.736 39.6885 30.096C40.3925 29.456 40.7445 28.72 40.7445 27.888C40.7445 26.672 40.2485 25.856 39.2565 25.44C38.2965 24.992 36.9525 24.592 35.2245 24.24C33.8805 23.952 32.5365 23.568 31.1925 23.088C29.8805 22.608 28.7765 21.936 27.8805 21.072C27.0165 20.176 26.5845 18.976 26.5845 17.472C26.5845 15.392 27.3845 13.664 28.9845 12.288C30.5845 10.88 32.8245 10.176 35.7045 10.176C38.3605 10.176 40.5045 10.816 42.1365 12.096C43.8005 13.376 44.7765 15.184 45.0645 17.52H40.1685C40.0085 16.496 39.5285 15.696 38.7285 15.12C37.9605 14.544 36.9205 14.256 35.6085 14.256C34.3285 14.256 33.3365 14.528 32.6325 15.072C31.9285 15.584 31.5765 16.256 31.5765 17.088C31.5765 17.92 32.0565 18.576 33.0165 19.056C34.0085 19.536 35.3045 19.968 36.9045 20.352C38.5045 20.704 39.9765 21.12 41.3205 21.6C42.6965 22.048 43.8005 22.72 44.6325 23.616C45.4645 24.512 45.8805 25.824 45.8805 27.552C45.9125 29.728 45.0645 31.536 43.3365 32.976C41.6405 34.416 39.3205 35.136 36.3765 35.136Z" fill="#181717"/>
<path d="M58.059 35.136C56.043 35.136 54.379 34.8 53.067 34.128C51.755 33.456 50.779 32.576 50.139 31.488C49.499 30.368 49.179 29.152 49.179 27.84C49.179 25.536 50.075 23.712 51.867 22.368C53.659 21.024 56.219 20.352 59.547 20.352H65.787V19.92C65.787 18.064 65.275 16.672 64.251 15.744C63.259 14.816 61.963 14.352 60.363 14.352C58.955 14.352 57.723 14.704 56.667 15.408C55.643 16.08 55.019 17.088 54.795 18.432H49.707C49.867 16.704 50.443 15.232 51.435 14.016C52.459 12.768 53.739 11.824 55.275 11.184C56.843 10.512 58.555 10.176 60.411 10.176C63.739 10.176 66.315 11.056 68.139 12.816C69.963 14.544 70.875 16.912 70.875 19.92V34.56H66.459L66.027 30.48C65.355 31.792 64.379 32.896 63.099 33.792C61.819 34.688 60.139 35.136 58.059 35.136ZM59.067 31.008C60.443 31.008 61.595 30.688 62.523 30.048C63.483 29.376 64.219 28.496 64.731 27.408C65.275 26.32 65.611 25.12 65.739 23.808H60.075C58.059 23.808 56.619 24.16 55.755 24.864C54.923 25.568 54.507 26.448 54.507 27.504C54.507 28.592 54.907 29.456 55.707 30.096C56.539 30.704 57.659 31.008 59.067 31.008Z" fill="#181717"/>
<path d="M77.3835 34.848C76.4235 34.848 75.6235 34.544 74.9835 33.936C74.3755 33.296 74.0715 32.544 74.0715 31.68C74.0715 30.784 74.3755 30.032 74.9835 29.424C75.6235 28.784 76.4235 28.464 77.3835 28.464C78.3435 28.464 79.1275 28.784 79.7355 29.424C80.3435 30.032 80.6475 30.784 80.6475 31.68C80.6475 32.544 80.3435 33.296 79.7355 33.936C79.1275 34.544 78.3435 34.848 77.3835 34.848Z" fill="#181717"/>
</g>
</svg>
